# xmcd
#
# Track frame offsets: 
#        150
#        17855
#        33100
#        55677
#        74882
#        96107
#        120010
#        142545
#        158055
#        177455
#        200560
#
# Disc length: 2988 seconds
#
# Revision: 0
# Processed by: cddbd v1.5.2PL0 Copyright (c) Steve Scherf et al.
# Submitted via: ExactAudioCopy v0.99pb4
#
DISCID=8a0baa0b
DTITLE=Big Daddy Wilson - Love Is The Key
DYEAR=2009
DGENRE=Blues
TTITLE0=Country Boy
TTITLE1=Jazzy Rose
TTITLE2=Anna
TTITLE3=Love is the key
TTITLE4=Walk a mile in my shoes
TTITLE5=Ain't no slave
TTITLE6=Keep your faith in jah
TTITLE7=Stranger
TTITLE8=Hard days work
TTITLE9=Dreaming
TTITLE10=Waiting on you
EXTD=
EXTT0=
EXTT1=
EXTT2=
EXTT3=
EXTT4=
EXTT5=
EXTT6=
EXTT7=
EXTT8=
EXTT9=
EXTT10=
PLAYORDER=
